<svg width="128" height="128" viewBox="0 0 128 128" fill="none" xmlns="http://www.w3.org/2000/svg">
<g clip-path="url(#clip0_14_102)">
<circle cx="64" cy="64" r="64" fill="black"/>
<path d="M33.1834 23.3793C50.3972 23.3793 74.4966 27.3517 74.4966 58.6897C74.4966 88.88 50.7503 94 33.1834 94H21.6193C21.0897 94 20.6483 93.5586 20.6483 93.2055V65.4869H34.1545V81.0234C42.7172 81.3766 60.9021 80.4938 60.9021 58.6897C60.9021 41.9172 49.5145 35.4731 34.1545 36.2676V51.8924H20.6483V24.1738C20.6483 23.8207 21.0897 23.3793 21.6193 23.3793H33.1834Z" fill="white"/>
<path d="M20.6483 65.4869V63.28H18.4414V65.4869H20.6483ZM34.1545 65.4869H36.3614V63.28H34.1545V65.4869ZM34.1545 81.0234H31.9476V83.1412L34.0636 83.2285L34.1545 81.0234ZM34.1545 36.2676L34.0405 34.0636L31.9476 34.1719V36.2676H34.1545ZM34.1545 51.8924V54.0993H36.3614V51.8924H34.1545ZM20.6483 51.8924H18.4414V54.0993H20.6483V51.8924ZM33.1834 25.5862C41.702 25.5862 51.5196 26.5869 59.159 31.1747C66.591 35.6379 72.2897 43.6971 72.2897 58.6897H76.7035C76.7035 42.3442 70.3525 32.7483 61.4314 27.3908C52.7177 22.1579 41.8787 21.1724 33.1834 21.1724V25.5862ZM72.2897 58.6897C72.2897 73.0927 66.6892 81.1767 59.2627 85.7918C51.655 90.5195 41.8266 91.7931 33.1834 91.7931V96.2069C42.1072 96.2069 52.9354 94.9205 61.5924 89.5406C70.4308 84.0481 76.7035 74.4769 76.7035 58.6897H72.2897ZM33.1834 91.7931H21.6193V96.2069H33.1834V91.7931ZM21.6193 91.7931C21.9656 91.7931 22.2243 91.9307 22.3884 92.0743C22.4757 92.1507 22.5758 92.2621 22.6629 92.4218C22.7461 92.5744 22.8552 92.8425 22.8552 93.2055H18.4414C18.4414 94.2361 19.0191 94.9911 19.4819 95.396C19.9992 95.8486 20.7434 96.2069 21.6193 96.2069V91.7931ZM22.8552 93.2055V65.4869H18.4414V93.2055H22.8552ZM20.6483 67.6938H34.1545V63.28H20.6483V67.6938ZM31.9476 65.4869V81.0234H36.3614V65.4869H31.9476ZM34.0636 83.2285C38.4079 83.4076 45.5934 83.3085 51.7524 80.1262C54.8778 78.5112 57.7533 76.0956 59.8319 72.5418C61.9059 68.9959 63.109 64.4502 63.109 58.6897H58.6952C58.6952 63.8312 57.6251 67.5724 56.0219 70.3134C54.4233 73.0465 52.2174 74.9177 49.7263 76.2049C44.6521 78.8267 38.4639 78.9924 34.2454 78.8184L34.0636 83.2285ZM63.109 58.6897C63.109 49.7641 60.049 43.2407 54.6202 39.1314C49.2839 35.0921 42.0056 33.6516 34.0405 34.0636L34.2685 38.4715C41.6634 38.089 47.7589 39.4734 51.9563 42.6507C56.0614 45.7579 58.6952 50.8428 58.6952 58.6897H63.109ZM31.9476 36.2676V51.8924H36.3614V36.2676H31.9476ZM34.1545 49.6855H20.6483V54.0993H34.1545V49.6855ZM22.8552 51.8924V24.1738H18.4414V51.8924H22.8552ZM22.8552 24.1738C22.8552 24.5368 22.7461 24.8049 22.6629 24.9575C22.5758 25.1172 22.4757 25.2287 22.3884 25.305C22.2243 25.4486 21.9656 25.5862 21.6193 25.5862V21.1724C20.7434 21.1724 19.9992 21.5307 19.4819 21.9833C19.0191 22.3882 18.4414 23.1432 18.4414 24.1738H22.8552ZM21.6193 25.5862H33.1834V21.1724H21.6193V25.5862Z" fill="black"/>
<path d="M85.3669 111.559C85.1021 112.177 84.0428 112.177 83.6897 111.559L57.1186 42.4386C56.8538 41.909 57.2069 41.3793 57.9131 41.3793H69.9186C70.36 41.3793 70.7131 41.5559 70.8014 41.909L84.5724 80.3972L93.8414 54.5324H107.436L85.3669 111.559Z" fill="white"/>
<path d="M85.3669 111.559L87.3954 112.428L87.4109 112.392L87.425 112.355L85.3669 111.559ZM83.6897 111.559L81.6297 112.35L81.6901 112.508L81.7735 112.654L83.6897 111.559ZM57.1186 42.4386L59.1786 41.6467L59.1403 41.5471L59.0925 41.4517L57.1186 42.4386ZM70.8014 41.909L68.6604 42.4442L68.6868 42.5499L68.7235 42.6524L70.8014 41.909ZM84.5724 80.3972L82.4945 81.1407L84.5708 86.9436L86.6499 81.1417L84.5724 80.3972ZM93.8414 54.5324V52.3255H92.2879L91.7639 53.7879L93.8414 54.5324ZM107.436 54.5324L109.494 55.3289L110.656 52.3255H107.436V54.5324ZM83.3384 110.689C83.664 109.93 84.339 109.815 84.5614 109.815C84.802 109.815 85.2956 109.921 85.6058 110.464L81.7735 112.654C82.4368 113.814 83.6366 114.229 84.5614 114.229C85.4679 114.229 86.805 113.806 87.3954 112.428L83.3384 110.689ZM85.7496 110.767L59.1786 41.6467L55.0587 43.2305L81.6297 112.35L85.7496 110.767ZM59.0925 41.4517C59.2876 41.8419 59.3285 42.4656 58.9408 43.0025C58.5801 43.502 58.101 43.5862 57.9131 43.5862V39.1724C57.019 39.1724 56.0103 39.5215 55.3626 40.4182C54.688 41.3523 54.6848 42.5057 55.1447 43.4256L59.0925 41.4517ZM57.9131 43.5862H69.9186V39.1724H57.9131V43.5862ZM69.9186 43.5862C69.8683 43.5862 69.6626 43.5793 69.3975 43.4278C69.0904 43.2523 68.7783 42.9158 68.6604 42.4442L72.9424 41.3737C72.4907 39.5671 70.7885 39.1724 69.9186 39.1724V43.5862ZM68.7235 42.6524L82.4945 81.1407L86.6503 79.6538L72.8793 41.1655L68.7235 42.6524ZM86.6499 81.1417L95.9189 55.2769L91.7639 53.7879L82.4949 79.6527L86.6499 81.1417ZM93.8414 56.7393H107.436V52.3255H93.8414V56.7393ZM105.378 53.7359L83.3087 110.762L87.425 112.355L109.494 55.3289L105.378 53.7359Z" fill="black"/>
</g>
<defs>
<clipPath id="clip0_14_102">
<rect width="128" height="128" fill="white"/>
</clipPath>
</defs>
</svg>
