<svg width="68" height="68" viewBox="0 0 68 68" fill="none" xmlns="http://www.w3.org/2000/svg">
<g clip-path="url(#clip0_24_55)">
<circle cx="34" cy="34" r="33" fill="black" stroke="#90ff00" stroke-width="2"/>
<path d="M19.5921 14.688C28.1994 14.688 40.2496 16.6743 40.2496 32.344C40.2496 47.4399 28.3759 50 19.5921 50H13.8097C13.5449 50 13.3242 49.7793 13.3242 49.6027V35.7428H20.0776V43.5114C24.3592 43.688 33.452 43.2466 33.452 32.344C33.452 23.9574 27.758 20.7352 20.0776 21.1324V28.9452H13.3242V15.0853C13.3242 14.9087 13.5449 14.688 13.8097 14.688H19.5921Z" fill="white"/>
<path d="M13.3242 35.7428V34.6378H12.2192V35.7428H13.3242ZM20.0776 35.7428H21.1826V34.6378H20.0776V35.7428ZM20.0776 43.5114H18.9726V44.5718L20.0321 44.6155L20.0776 43.5114ZM20.0776 21.1324L20.0205 20.0289L18.9726 20.0831V21.1324H20.0776ZM20.0776 28.9452V30.0502H21.1826V28.9452H20.0776ZM13.3242 28.9452H12.2192V30.0502H13.3242V28.9452ZM19.5921 15.793C23.8515 15.793 28.7602 16.2934 32.5797 18.5872C36.2953 20.8186 39.1446 24.8478 39.1446 32.344H41.3546C41.3546 24.1705 38.1787 19.3717 33.7175 16.6926C29.3601 14.0758 23.9399 13.583 19.5921 13.583V15.793ZM39.1446 32.344C39.1446 39.5454 36.3445 43.5871 32.6315 45.8944C28.8278 48.2582 23.9137 48.895 19.5921 48.895V51.105C24.0543 51.105 29.4689 50.4618 33.798 47.7715C38.2179 45.0248 41.3546 40.2385 41.3546 32.344H39.1446ZM19.5921 48.895H13.8097V51.105H19.5921V48.895ZM13.8097 48.895C13.9833 48.895 14.113 48.964 14.1953 49.036C14.239 49.0743 14.2892 49.1301 14.3329 49.2102C14.3746 49.2866 14.4292 49.4209 14.4292 49.6027H12.2192C12.2192 50.1187 12.5084 50.4965 12.74 50.6992C12.9989 50.9257 13.3714 51.105 13.8097 51.105V48.895ZM14.4292 49.6027V35.7428H12.2192V49.6027H14.4292ZM13.3242 36.8478H20.0776V34.6378H13.3242V36.8478ZM18.9726 35.7428V43.5114H21.1826V35.7428H18.9726ZM20.0321 44.6155C22.2044 44.7051 25.7977 44.6555 28.8777 43.0641C30.4407 42.2565 31.8787 41.0484 32.9182 39.2712C33.9554 37.4978 34.557 35.2246 34.557 32.344H32.347C32.347 34.9147 31.812 36.7851 31.0106 38.1554C30.2114 39.5217 29.1086 40.4572 27.8632 41.1007C25.3264 42.4115 22.2324 42.4943 20.1231 42.4074L20.0321 44.6155ZM34.557 32.344C34.557 27.8806 33.0268 24.6183 30.3119 22.5632C27.6432 20.5432 24.0035 19.8229 20.0205 20.0289L20.1347 22.236C23.8321 22.0447 26.8796 22.7369 28.9781 24.3253C31.0302 25.8787 32.347 28.4208 32.347 32.344H34.557ZM18.9726 21.1324V28.9452H21.1826V21.1324H18.9726ZM20.0776 27.8402H13.3242V30.0502H20.0776V27.8402ZM14.4292 28.9452V15.0853H12.2192V28.9452H14.4292ZM14.4292 15.0853C14.4292 15.2671 14.3746 15.4014 14.3329 15.4778C14.2892 15.5579 14.239 15.6137 14.1953 15.652C14.113 15.724 13.9833 15.793 13.8097 15.793V13.583C13.3714 13.583 12.9989 13.7623 12.74 13.9888C12.5084 14.1915 12.2192 14.5693 12.2192 15.0853H14.4292ZM13.8097 15.793H19.5921V13.583H13.8097V15.793Z" fill="black"/>
<path d="M44.1842 56.7793C44.0517 57.0883 43.5221 57.0883 43.3455 56.7793L30.0594 22.2177C29.9269 21.9528 30.1035 21.688 30.4566 21.688H36.4597C36.6804 21.688 36.8569 21.7763 36.9011 21.9528L43.7869 41.1979L48.4216 28.2649H55.2192L44.1842 56.7793Z" fill="white"/>
<path d="M44.1842 56.7793L45.1998 57.2146L45.2076 57.1965L45.2147 57.1781L44.1842 56.7793ZM43.3455 56.7793L42.3141 57.1758L42.3443 57.2544L42.3861 57.3275L43.3455 56.7793ZM30.0594 22.2177L31.0908 21.8212L31.0716 21.7713L31.0477 21.7235L30.0594 22.2177ZM36.9011 21.9528L35.8291 22.2208L35.8423 22.2737L35.8607 22.3251L36.9011 21.9528ZM43.7869 41.1979L42.7465 41.5701L43.7861 44.4757L44.8271 41.5707L43.7869 41.1979ZM48.4216 28.2649V27.1599H47.6438L47.3814 27.8921L48.4216 28.2649ZM55.2192 28.2649L56.2497 28.6637L56.8317 27.1599H55.2192V28.2649ZM43.1685 56.344C43.3316 55.9634 43.6698 55.906 43.7814 55.906C43.9021 55.906 44.1495 55.959 44.3049 56.2311L42.3861 57.3275C42.7181 57.9085 43.3186 58.116 43.7814 58.116C44.235 58.116 44.9043 57.9041 45.1998 57.2146L43.1685 56.344ZM44.3769 56.3828L31.0908 21.8212L29.0279 22.6142L42.3141 57.1758L44.3769 56.3828ZM31.0477 21.7235C31.1455 21.9191 31.1659 22.2316 30.9717 22.5005C30.791 22.7507 30.5509 22.793 30.4566 22.793V20.583C30.0092 20.583 29.5043 20.7577 29.1801 21.2066C28.8424 21.6741 28.8408 22.2515 29.071 22.7119L31.0477 21.7235ZM30.4566 22.793H36.4597V20.583H30.4566V22.793ZM36.4597 22.793C36.4343 22.793 36.3312 22.7895 36.1983 22.7136C36.0444 22.6257 35.8881 22.4571 35.8291 22.2208L37.9731 21.6848C37.747 20.7805 36.8949 20.583 36.4597 20.583V22.793ZM35.8607 22.3251L42.7465 41.5701L44.8273 40.8256L37.9415 21.5806L35.8607 22.3251ZM44.8271 41.5707L49.4618 28.6376L47.3814 27.8921L42.7467 40.8251L44.8271 41.5707ZM48.4216 29.3699H55.2192V27.1599H48.4216V29.3699ZM54.1886 27.8661L43.1536 56.3805L45.2147 57.1781L56.2497 28.6637L54.1886 27.8661Z" fill="black"/>
</g>
<defs>
<clipPath id="clip0_24_55">
<rect width="68" height="68" fill="white"/>
</clipPath>
</defs>
</svg>
