<svg width="131" height="97" viewBox="0 0 131 97" fill="none" xmlns="http://www.w3.org/2000/svg">
<mask id="mask0_31_7" style="mask-type:luminance" maskUnits="userSpaceOnUse" x="0" y="0" width="131" height="97">
<path d="M0 0H131V96.6165H0V0Z" fill="white"/>
</mask>
<g mask="url(#mask0_31_7)">
<path d="M131 46.1518V50.4645C130.959 50.6985 130.907 50.9282 130.88 51.161C130.657 53.0371 130.513 54.925 130.204 56.787C129.197 62.8389 127.02 68.4638 123.786 73.665C118.874 81.5617 112.233 87.5834 103.888 91.6956C99.0714 94.0803 93.8782 95.6127 88.5387 96.225C87.3527 96.362 86.1678 96.4849 84.9818 96.6153H38.9604C38.7286 96.5722 38.4978 96.5032 38.2639 96.4892C33.6233 96.197 29.1586 95.1393 24.9029 93.2773C15.6381 89.2233 8.7301 82.6528 4.20817 73.6089C2.21001 69.6198 0.916891 65.3151 0.385992 60.8852C0.255531 59.8081 0.128305 58.7321 0 57.6561V53.4716C0.0442058 53.2398 0.112132 53.008 0.126148 52.7751C0.366584 48.7545 1.1914 44.8504 2.64372 41.0983C6.55216 31.0021 13.3652 23.5141 23.0474 18.6677C28.0707 16.1522 33.4249 14.8304 39.0251 14.5371C41.7669 14.3948 44.5066 14.5479 47.2322 14.9134C47.4791 14.9468 47.8349 14.8368 48.0064 14.6611C51.9256 10.6578 56.3882 7.40596 61.4201 4.94122C66.3011 2.55087 71.4376 1.01014 76.8447 0.393417C78.117 0.247861 79.3925 0.128182 80.6669 -0.00335693H84.5904C84.847 0.0365361 85.1047 0.08182 85.3613 0.112009C87.3053 0.338429 89.26 0.48075 91.1857 0.803129C97.1934 1.81124 102.786 3.96761 107.961 7.17092C115.897 12.0831 121.944 18.7323 126.076 27.1034C128.465 31.9221 129.999 37.1194 130.61 42.4633C130.75 43.6935 130.87 44.9237 131 46.1518ZM57.7532 18.245C57.8319 18.3485 57.8513 18.397 57.8847 18.4132C60.5791 19.7413 63.1543 21.2985 65.5819 23.0677C65.735 23.1788 66.1146 23.1324 66.3 23.016C72.9718 18.7884 80.2043 17.3296 87.9738 18.7075C95.5869 20.0574 101.782 23.8613 106.515 29.9369C111.875 36.8125 113.918 44.5873 112.439 53.2376C111.447 59.0351 109.125 64.2362 105.177 68.5932C97.9751 76.5362 88.956 79.8215 78.3391 78.4306C71.8031 77.5745 66.1609 74.7551 61.4913 70.0358C55.4976 63.9818 49.4652 57.9677 43.4543 51.9298C42.6532 51.1255 41.7615 50.4785 40.6078 50.3373C38.5927 50.0904 36.7641 51.0963 35.894 52.9066C35.1177 54.5228 35.218 56.345 36.9021 58.0011C43.6031 64.5791 50.2447 71.2175 56.9381 77.802C58.0837 78.9347 59.3123 79.9802 60.6136 80.9298C65.5032 84.4803 71.016 86.4437 76.9859 87.234C81.6718 87.8529 86.3209 87.7203 90.9345 86.6831C99.7347 84.7067 107.024 80.215 112.766 73.2844C117.506 67.5571 120.373 60.9758 121.373 53.587C121.952 49.3735 121.831 45.0933 121.015 40.9193C119.683 34.0944 116.796 27.9875 112.169 22.7896C103.342 12.8778 92.2369 8.45288 79.0216 9.4405C73.9379 9.82003 69.1292 11.3133 64.604 13.6821C62.1621 14.9508 59.8651 16.4807 57.7532 18.245ZM54.5197 87.4389C54.3378 87.2704 54.1567 87.1011 53.9763 86.931C51.2366 84.3445 48.4819 81.7741 45.7745 79.1541C45.2505 78.6473 44.7686 78.4004 44.0268 78.4177C41.2849 78.4845 38.541 78.4964 35.839 77.8861C22.4048 74.8478 14.6041 60.2416 19.5551 47.3895C23.4603 37.2556 34.2713 31.0841 44.9325 32.9871C49.711 33.8399 53.9051 35.8626 57.3478 39.4131C61.5463 43.7474 65.8698 47.9577 70.1136 52.2479C71.0796 53.2247 72.1891 53.67 73.5271 53.4791C75.2565 53.2322 76.6334 52.4085 77.2587 50.7125C77.8711 49.0435 77.5746 47.4628 76.311 46.183C71.857 41.6708 67.5087 37.0454 62.8746 32.7251C53.8868 24.3422 43.2882 21.8494 31.5661 25.4139C15.7998 30.2043 6.57264 46.4849 10.1749 62.55C13.458 77.1875 26.2593 87.4604 41.2386 87.4734C45.4209 87.4777 49.6043 87.4755 53.7866 87.4734C53.9936 87.4734 54.2006 87.455 54.5197 87.4389Z" fill="white"/>
</g>
</svg>
