<svg width="512" height="512" viewBox="0 0 512 512" fill="none" xmlns="http://www.w3.org/2000/svg">
<g clip-path="url(#clip0_108_13)">
<mask id="mask0_108_13" style="mask-type:luminance" maskUnits="userSpaceOnUse" x="0" y="0" width="512" height="512">
<path d="M512 0H0V512H512V0Z" fill="white"/>
</mask>
<g mask="url(#mask0_108_13)">
<path d="M256 504.471C393.226 504.471 504.47 393.227 504.47 256C504.47 118.773 393.226 7.52942 256 7.52942C118.773 7.52942 7.5293 118.773 7.5293 256C7.5293 393.227 118.773 504.471 256 504.471Z" fill="black" stroke="#90FF00" stroke-width="2"/>
<path d="M147.517 110.592C212.325 110.592 303.056 125.548 303.056 243.531C303.056 357.195 213.654 376.471 147.517 376.471H103.979C101.985 376.471 100.323 374.809 100.323 373.479V269.122H151.172V327.615C183.41 328.945 251.874 325.621 251.874 243.531C251.874 180.385 209.001 156.124 151.172 159.115V217.94H100.323V113.583C100.323 112.254 101.985 110.592 103.979 110.592H147.517Z" fill="white"/>
<path d="M100.323 269.122V260.802H92.0032V269.122H100.323ZM151.172 269.122H159.492V260.802H151.172V269.122ZM151.172 327.615H142.852V335.599L150.83 335.929L151.172 327.615ZM151.172 159.115L150.742 150.806L142.852 151.214V159.115H151.172ZM151.172 217.94V226.26H159.492V217.94H151.172ZM100.323 217.94H92.0032V226.26H100.323V217.94ZM147.517 118.912C179.588 118.912 216.547 122.68 245.306 139.951C273.282 156.752 294.736 187.089 294.736 243.531H311.376C311.376 181.99 287.463 145.858 253.873 125.685C221.064 105.983 180.253 102.272 147.517 102.272V118.912ZM294.736 243.531C294.736 297.754 273.652 328.185 245.696 345.558C217.056 363.356 180.056 368.151 147.517 368.151V384.791C181.115 384.791 221.883 379.948 254.479 359.691C287.758 339.01 311.376 302.972 311.376 243.531H294.736ZM147.517 368.151H103.979V384.791H147.517V368.151ZM103.979 368.151C105.286 368.151 106.262 368.67 106.882 369.212C107.211 369.501 107.589 369.921 107.918 370.524C108.232 371.099 108.643 372.11 108.643 373.479H92.0032C92.0032 377.364 94.1807 380.209 95.9245 381.735C97.8739 383.441 100.679 384.791 103.979 384.791V368.151ZM108.643 373.479V269.122H92.0032V373.479H108.643ZM100.323 277.442H151.172V260.802H100.323V277.442ZM142.852 269.122V327.615H159.492V269.122H142.852ZM150.83 335.929C167.186 336.603 194.241 336.23 217.432 324.247C229.2 318.167 240.028 309.07 247.854 295.689C255.664 282.336 260.194 265.221 260.194 243.531H243.554C243.554 262.887 239.525 276.97 233.491 287.288C227.474 297.575 219.17 304.619 209.793 309.464C190.693 319.334 167.397 319.957 151.515 319.303L150.83 335.929ZM260.194 243.531C260.194 209.925 248.672 185.361 228.231 169.888C208.137 154.678 180.732 149.255 150.742 150.806L151.602 167.424C179.441 165.984 202.387 171.196 218.188 183.155C233.639 194.851 243.554 213.992 243.554 243.531H260.194ZM142.852 159.115V217.94H159.492V159.115H142.852ZM151.172 209.62H100.323V226.26H151.172V209.62ZM108.643 217.94V113.583H92.0032V217.94H108.643ZM108.643 113.583C108.643 114.952 108.232 115.964 107.918 116.539C107.589 117.142 107.211 117.562 106.882 117.85C106.262 118.393 105.286 118.912 103.979 118.912V102.272C100.679 102.272 97.8739 103.622 95.9245 105.327C94.1807 106.854 92.0032 109.698 92.0032 113.583H108.643ZM103.979 118.912H147.517V102.272H103.979V118.912Z" fill="black"/>
<path d="M332.681 427.515C331.683 429.841 327.696 429.841 326.366 427.515L226.329 167.286C225.332 165.292 226.661 163.298 229.32 163.298H274.52C276.182 163.298 277.511 163.963 277.843 165.292L329.689 310.196L364.586 212.818H415.768L332.681 427.515Z" fill="white"/>
<path d="M332.681 427.515L340.328 430.792L340.386 430.656L340.44 430.517L332.681 427.515ZM326.366 427.515L318.6 430.5L318.827 431.092L319.142 431.642L326.366 427.515ZM226.329 167.286L234.095 164.301L233.951 163.925L233.771 163.565L226.329 167.286ZM277.843 165.292L269.772 167.31L269.871 167.708L270.01 168.095L277.843 165.292ZM329.689 310.196L321.856 312.998L329.683 334.876L337.521 313.003L329.689 310.196ZM364.586 212.818V204.498H358.73L356.754 210.011L364.586 212.818ZM415.768 212.818L423.527 215.821L427.909 204.498H415.768V212.818ZM325.033 424.237C326.261 421.372 328.808 420.939 329.648 420.939C330.557 420.939 332.42 421.338 333.59 423.387L319.142 431.642C321.642 436.017 326.163 437.579 329.648 437.579C333.063 437.579 338.103 435.984 340.328 430.792L325.033 424.237ZM334.132 424.529L234.095 164.301L218.563 170.272L318.6 430.5L334.132 424.529ZM233.771 163.565C234.507 165.038 234.661 167.391 233.198 169.416C231.838 171.299 230.03 171.618 229.32 171.618V154.978C225.951 154.978 222.15 156.293 219.709 159.673C217.166 163.193 217.154 167.541 218.887 171.007L233.771 163.565ZM229.32 171.618H274.52V154.978H229.32V171.618ZM274.52 171.618C274.329 171.618 273.552 171.592 272.552 171.02C271.393 170.358 270.216 169.089 269.772 167.31L285.915 163.274C284.212 156.465 277.797 154.978 274.52 154.978V171.618ZM270.01 168.095L321.856 312.998L337.523 307.393L285.677 162.489L270.01 168.095ZM337.521 313.003L372.418 215.624L356.754 210.011L321.857 307.389L337.521 313.003ZM364.586 221.138H415.768V204.498H364.586V221.138ZM408.008 209.815L324.921 424.512L340.44 430.517L423.527 215.821L408.008 209.815Z" fill="black"/>
</g>
</g>
<defs>
<clipPath id="clip0_108_13">
<rect width="512" height="512" fill="white"/>
</clipPath>
</defs>
</svg>
