<svg width="92" height="90" viewBox="0 0 92 90" fill="none" xmlns="http://www.w3.org/2000/svg">
<path d="M15.1834 0.379308C32.3972 0.379308 56.4966 4.35172 56.4966 35.6897C56.4966 65.88 32.7503 71 15.1834 71H3.61931C3.08966 71 2.64828 70.5586 2.64828 70.2055V42.4869H16.1545V58.0234C24.7172 58.3766 42.9021 57.4938 42.9021 35.6897C42.9021 18.9172 31.5145 12.4731 16.1545 13.2676V28.8924H2.64828V1.17379C2.64828 0.820687 3.08966 0.379308 3.61931 0.379308H15.1834Z" fill="white"/>
<path d="M2.64828 42.4869V40.28H0.441379V42.4869H2.64828ZM16.1545 42.4869H18.3614V40.28H16.1545V42.4869ZM16.1545 58.0234H13.9476V60.1412L16.0636 60.2285L16.1545 58.0234ZM16.1545 13.2676L16.0405 11.0636L13.9476 11.1719V13.2676H16.1545ZM16.1545 28.8924V31.0993H18.3614V28.8924H16.1545ZM2.64828 28.8924H0.441379V31.0993H2.64828V28.8924ZM15.1834 2.5862C23.702 2.5862 33.5196 3.58692 41.159 8.1747C48.591 12.6379 54.2897 20.6971 54.2897 35.6897H58.7035C58.7035 19.3442 52.3525 9.7483 43.4314 4.39081C34.7177 -0.842098 23.8787 -1.82759 15.1834 -1.82759V2.5862ZM54.2897 35.6897C54.2897 50.0927 48.6892 58.1767 41.2627 62.7918C33.655 67.5195 23.8266 68.7931 15.1834 68.7931V73.2069C24.1072 73.2069 34.9354 71.9205 43.5924 66.5406C52.4308 61.0481 58.7035 51.4769 58.7035 35.6897H54.2897ZM15.1834 68.7931H3.61931V73.2069H15.1834V68.7931ZM3.61931 68.7931C3.96556 68.7931 4.22426 68.9307 4.38842 69.0743C4.47567 69.1507 4.57583 69.2621 4.66294 69.4218C4.74615 69.5744 4.85517 69.8425 4.85517 70.2055H0.441379C0.441379 71.2361 1.0191 71.9911 1.48192 72.396C1.99919 72.8486 2.7434 73.2069 3.61931 73.2069V68.7931ZM4.85517 70.2055V42.4869H0.441379V70.2055H4.85517ZM2.64828 44.6938H16.1545V40.28H2.64828V44.6938ZM13.9476 42.4869V58.0234H18.3614V42.4869H13.9476ZM16.0636 60.2285C20.4079 60.4076 27.5934 60.3085 33.7524 57.1262C36.8778 55.5112 39.7533 53.0956 41.8319 49.5418C43.9059 45.9959 45.109 41.4502 45.109 35.6897H40.6952C40.6952 40.8312 39.6251 44.5724 38.0219 47.3134C36.4233 50.0465 34.2174 51.9177 31.7263 53.2049C26.6521 55.8267 20.4639 55.9924 16.2454 55.8184L16.0636 60.2285ZM45.109 35.6897C45.109 26.7641 42.049 20.2407 36.6202 16.1314C31.2839 12.0921 24.0056 10.6516 16.0405 11.0636L16.2685 15.4715C23.6634 15.089 29.7589 16.4734 33.9563 19.6507C38.0614 22.7579 40.6952 27.8428 40.6952 35.6897H45.109ZM13.9476 13.2676V28.8924H18.3614V13.2676H13.9476ZM16.1545 26.6855H2.64828V31.0993H16.1545V26.6855ZM4.85517 28.8924V1.17379H0.441379V28.8924H4.85517ZM4.85517 1.17379C4.85517 1.53681 4.74615 1.80492 4.66294 1.95746C4.57583 2.11718 4.47567 2.22865 4.38842 2.30499C4.22426 2.44864 3.96556 2.5862 3.61931 2.5862V-1.82759C2.7434 -1.82759 1.99919 -1.46933 1.48192 -1.01672C1.0191 -0.611755 0.441379 0.143161 0.441379 1.17379H4.85517ZM3.61931 2.5862H15.1834V-1.82759H3.61931V2.5862Z" fill="black"/>
<path d="M67.3669 88.5586C67.1021 89.1766 66.0428 89.1766 65.6897 88.5586L39.1186 19.4386C38.8538 18.909 39.2069 18.3793 39.9131 18.3793H51.9186C52.36 18.3793 52.7131 18.5559 52.8014 18.909L66.5724 57.3972L75.8414 31.5324H89.4359L67.3669 88.5586Z" fill="white"/>
<path d="M67.3669 88.5586L69.3954 89.428L69.4109 89.3918L69.425 89.3551L67.3669 88.5586ZM65.6897 88.5586L63.6297 89.3505L63.6901 89.5075L63.7735 89.6535L65.6897 88.5586ZM39.1186 19.4386L41.1786 18.6467L41.1403 18.5471L41.0925 18.4517L39.1186 19.4386ZM52.8014 18.909L50.6604 19.4442L50.6868 19.5499L50.7235 19.6524L52.8014 18.909ZM66.5724 57.3972L64.4945 58.1407L66.5708 63.9436L68.6499 58.1417L66.5724 57.3972ZM75.8414 31.5324V29.3255H74.2879L73.7639 30.7879L75.8414 31.5324ZM89.4359 31.5324L91.494 32.3289L92.6563 29.3255H89.4359V31.5324ZM65.3384 87.6893C65.664 86.9296 66.339 86.8152 66.5614 86.8152C66.802 86.8152 67.2956 86.9208 67.6058 87.4637L63.7735 89.6535C64.4368 90.8143 65.6366 91.229 66.5614 91.229C67.4679 91.229 68.805 90.8056 69.3954 89.428L65.3384 87.6893ZM67.7496 87.7667L41.1786 18.6467L37.0587 20.2305L63.6297 89.3505L67.7496 87.7667ZM41.0925 18.4517C41.2876 18.8419 41.3285 19.4656 40.9408 20.0025C40.5801 20.502 40.101 20.5862 39.9131 20.5862V16.1724C39.019 16.1724 38.0103 16.5215 37.3626 17.4182C36.688 18.3523 36.6848 19.5057 37.1447 20.4256L41.0925 18.4517ZM39.9131 20.5862H51.9186V16.1724H39.9131V20.5862ZM51.9186 20.5862C51.8683 20.5862 51.6626 20.5793 51.3975 20.4278C51.0904 20.2523 50.7783 19.9158 50.6604 19.4442L54.9424 18.3737C54.4907 16.5671 52.7885 16.1724 51.9186 16.1724V20.5862ZM50.7235 19.6524L64.4945 58.1407L68.6503 56.6538L54.8793 18.1655L50.7235 19.6524ZM68.6499 58.1417L77.9189 32.2769L73.7639 30.7879L64.4949 56.6527L68.6499 58.1417ZM75.8414 33.7393H89.4359V29.3255H75.8414V33.7393ZM87.3777 30.7359L65.3087 87.7621L69.425 89.3551L91.494 32.3289L87.3777 30.7359Z" fill="black"/>
</svg>
